Coordinates
version=1
nRows=20
nColumns=38
inDegrees=no

Units are S.I. units (second, meters, Newtons, ...)
If the header above contains a line with 'inDegrees', this indicates whether rotational values are in degrees (yes) or radians (no).

endheader
time	pelvis_tilt	pelvis_list	pelvis_rotation	pelvis_tx	pelvis_ty	pelvis_tz	hip_flexion_r	hip_adduction_r	hip_rotation_r	knee_angle_r	ankle_angle_r	subtalar_angle_r	mtp_angle_r	hip_flexion_l	hip_adduction_l	hip_rotation_l	knee_angle_l	ankle_angle_l	subtalar_angle_l	mtp_angle_l	lumbar_extension	lumbar_bending	lumbar_rotation	arm_flex_r	arm_add_r	arm_rot_r	elbow_flex_r	pro_sup_r	wrist_flex_r	wrist_dev_r	arm_flex_l	arm_add_l	arm_rot_l	elbow_flex_l	pro_sup_l	wrist_flex_l	wrist_dev_l
0	3.00289	1.35869	-1.35687	0.721501	-0.510388	0.935623	-0.436112	0.07627	-0.136209	0.201419	-0.137721	0	0	0.201034	-0.0462442	-0.047428	0.225834	-0.159614	0	0	-0.466662	0.0873775	-0.0214221	-0.0229945	-0.594347	0.94808	0.847962	0.494888	0	0	-0.228992	-0.249302	-0.0101109	0.759859	1.42654	0	0
0.01	2.95636	1.32679	-1.31128	0.720451	-0.502809	0.939914	-0.475284	0.118972	-0.0807263	0.15478	-0.18869	0	0	0.150477	-0.0638068	-0.060107	0.156892	-0.187556	0	0	-0.503291	0.106072	-0.0166059	-0.00427629	-0.599153	0.970705	0.844161	0.480757	0	0	-0.218658	-0.237867	-0.0257116	0.748969	1.44016	0	0
0.02	2.94935	1.32977	-1.30287	0.719573	-0.494402	0.938757	-0.483094	0.120446	-0.0755181	0.149151	-0.197555	0	0	0.146178	-0.062367	-0.0594575	0.123447	-0.200902	0	0	-0.500791	0.106913	-0.020025	0.000282198	-0.598729	0.979213	0.842197	0.47273	0	0	-0.220818	-0.234557	-0.0367957	0.749723	1.44956	0	0
0.03	2.9414	1.33313	-1.29323	0.718574	-0.485793	0.937561	-0.4885	0.121169	-0.073588	0.148605	-0.20076	0	0	0.146375	-0.0619952	-0.0578411	0.110062	-0.208437	0	0	-0.497191	0.108057	-0.023317	0.00288569	-0.597898	0.98464	0.840036	0.468077	0	0	-0.222933	-0.231682	-0.0454213	0.749969	1.45666	0	0
0.04	2.93204	1.33524	-1.28356	0.717596	-0.477151	0.93654	-0.493517	0.121188	-0.0712904	0.151639	-0.201428	0	0	0.148087	-0.0629799	-0.0557688	0.115062	-0.210214	0	0	-0.494997	0.109422	-0.0247728	0.00439492	-0.597771	0.988226	0.83878	0.465528	0	0	-0.22429	-0.228721	-0.052318	0.749741	1.46244	0	0
0.05	2.9228	1.33729	-1.27485	0.716666	-0.468353	0.935603	-0.497409	0.121039	-0.0702372	0.157895	-0.201843	0	0	0.151417	-0.0639901	-0.0517885	0.136307	-0.207082	0	0	-0.492876	0.110394	-0.0254922	0.00611228	-0.597353	0.992316	0.836897	0.463287	0	0	-0.225784	-0.225166	-0.0605912	0.748935	1.4708	0	0
0.06	2.91611	1.33905	-1.26967	0.715773	-0.459328	0.934793	-0.501098	0.119945	-0.0712511	0.166131	-0.203285	0	0	0.154313	-0.0641855	-0.046995	0.167769	-0.200364	0	0	-0.490875	0.110378	-0.0249525	0.00696124	-0.596448	0.995294	0.834411	0.461539	0	0	-0.22692	-0.221291	-0.0693021	0.747635	1.47951	0	0
0.07	2.91297	1.34105	-1.26837	0.714862	-0.449945	0.934067	-0.504675	0.117624	-0.0744673	0.175311	-0.206048	0	0	0.156043	-0.0630458	-0.0415051	0.202355	-0.190864	0	0	-0.488343	0.109308	-0.0243759	0.00645273	-0.595084	0.997296	0.831352	0.460795	0	0	-0.228824	-0.217116	-0.0791178	0.746239	1.48812	0	0
0.08	2.91223	1.3426	-1.27036	0.713885	-0.44031	0.933478	-0.508589	0.114201	-0.0776633	0.185629	-0.209745	0	0	0.154933	-0.0608887	-0.0372068	0.23198	-0.177701	0	0	-0.485943	0.107564	-0.0231114	0.00492125	-0.594034	0.998583	0.828564	0.461018	0	0	-0.231709	-0.213069	-0.0885352	0.745616	1.49718	0	0
0.09	2.91294	1.33991	-1.27737	0.713288	-0.430065	0.933225	-0.517798	0.110361	-0.0781693	0.195327	-0.213645	0	0	0.144598	-0.0604561	-0.0413172	0.246856	-0.169702	0	0	-0.486689	0.105045	-0.0179684	0.00113734	-0.594241	0.998442	0.827979	0.461246	0	0	-0.236598	-0.21037	-0.0945929	0.747488	1.50256	0	0
0.1	2.92283	1.33901	-1.29088	0.712218	-0.420074	0.933165	-0.523599	0.104424	-0.081107	0.207211	-0.219056	0	0	0.134942	-0.0549175	-0.0410083	0.251065	-0.166569	0	0	-0.487316	0.101296	-0.0150649	-0.00253042	-0.594089	0.99701	0.827032	0.461195	0	0	-0.239751	-0.207414	-0.10096	0.749027	1.50817	0	0
0.11	2.93342	1.34023	-1.30448	0.711194	-0.409923	0.933185	-0.523599	0.0981224	-0.0850419	0.221739	-0.226819	0	0	0.126181	-0.0486312	-0.0396486	0.248061	-0.172806	0	0	-0.48556	0.0967613	-0.0132754	-0.00662486	-0.592265	0.994651	0.824227	0.461941	0	0	-0.242951	-0.203936	-0.109687	0.749704	1.51671	0	0
0.12	2.9436	1.34282	-1.31843	0.710166	-0.399478	0.933291	-0.523599	0.0909882	-0.0876646	0.237199	-0.236634	0	0	0.117706	-0.0425769	-0.0417147	0.243908	-0.189246	0	0	-0.481765	0.0917115	-0.0115049	-0.0108442	-0.589424	0.992414	0.81951	0.465088	0	0	-0.246267	-0.198645	-0.12244	0.74839	1.5302	0	0
0.13	2.95202	1.34628	-1.33114	0.708942	-0.38868	0.93336	-0.523599	0.0832043	-0.0898757	0.254666	-0.246476	0	0	0.109901	-0.0366546	-0.0474705	0.242599	-0.206347	0	0	-0.476322	0.0870212	-0.00950882	-0.0156844	-0.587158	0.990482	0.814804	0.47004	0	0	-0.250299	-0.19234	-0.136575	0.74624	1.54626	0	0
0.14	2.95711	1.34942	-1.33861	0.707359	-0.377881	0.933351	-0.523599	0.0765623	-0.0927932	0.275022	-0.255863	0	0	0.103385	-0.0311558	-0.0501031	0.245338	-0.217749	0	0	-0.47089	0.0843725	-0.00882958	-0.0213896	-0.5867	0.987591	0.812479	0.473815	0	0	-0.255117	-0.186916	-0.148135	0.745543	1.55822	0	0
0.15	2.95972	1.35333	-1.34136	0.705509	-0.367125	0.933289	-0.519254	0.0709097	-0.0958547	0.298252	-0.266295	0	0	0.0998227	-0.026129	-0.0463899	0.252316	-0.224924	0	0	-0.4644	0.083253	-0.0101697	-0.0275905	-0.587072	0.984379	0.811396	0.477269	0	0	-0.260022	-0.182113	-0.157714	0.745255	1.56736	0	0
0.16	2.96444	1.35785	-1.34465	0.703478	-0.35639	0.933363	-0.511731	0.064779	-0.099656	0.32437	-0.282032	0	0	0.0982433	-0.0208736	-0.0367093	0.262847	-0.229669	0	0	-0.457212	0.0821305	-0.0137545	-0.0333372	-0.586499	0.980495	0.809102	0.483124	0	0	-0.264505	-0.177587	-0.166244	0.743938	1.5708	0	0
0.17	2.97838	1.36045	-1.35647	0.701411	-0.345733	0.93386	-0.504925	0.0569912	-0.10288	0.352752	-0.296257	0	0	0.0942631	-0.0148671	-0.0273915	0.272787	-0.233719	0	0	-0.452471	0.0795473	-0.0169541	-0.0387604	-0.586161	0.978048	0.807344	0.486138	0	0	-0.268465	-0.177242	-0.165117	0.743748	1.5708	0	0
0.18	2.99882	1.36224	-1.374	0.699249	-0.335108	0.934705	-0.497126	0.047608	-0.107257	0.383872	-0.316387	0	0	0.0891308	-0.00818239	-0.0205933	0.28208	-0.240283	0	0	-0.44881	0.0761367	-0.0206692	-0.043738	-0.585082	0.975672	0.804479	0.489224	0	0	-0.271544	-0.177195	-0.163428	0.742907	1.5708	0	0
0.19	3.02444	1.36264	-1.39603	0.697011	-0.324407	0.935817	-0.489138	0.0366623	-0.113965	0.417318	-0.341887	0	0	0.081879	-0.00129252	-0.0185858	0.290745	-0.247973	0	0	-0.446414	0.0721723	-0.0250619	-0.0486522	-0.583712	0.973209	0.801412	0.492175	0	0	-0.274503	-0.177414	-0.161432	0.74236	1.5708	0	0
